<svg width="50" height="50" viewBox="0 0 50 50" fill="none" xmlns="http://www.w3.org/2000/svg">
<path d="M19 3.4641C22.7128 1.32051 27.2872 1.32051 31 3.4641L40.6506 9.0359C44.3634 11.1795 46.6506 15.141 46.6506 19.4282V30.5718C46.6506 34.859 44.3634 38.8205 40.6506 40.9641L31 46.5359C27.2872 48.6795 22.7128 48.6795 19 46.5359L9.34937 40.9641C5.63655 38.8205 3.34937 34.859 3.34937 30.5718V19.4282C3.34937 15.141 5.63655 11.1795 9.34937 9.0359L19 3.4641Z" fill="#FFF5EF"/>
<path d="M19.25 3.89711C22.8081 1.84284 27.1919 1.84284 30.75 3.89711L40.4006 9.46891C43.9587 11.5232 46.1506 15.3196 46.1506 19.4282V30.5718C46.1506 34.6804 43.9587 38.4768 40.4006 40.5311L30.75 46.1029C27.1919 48.1572 22.8081 48.1572 19.25 46.1029L9.59937 40.5311C6.04125 38.4768 3.84937 34.6803 3.84937 30.5718V19.4282C3.84937 15.3196 6.04125 11.5232 9.59937 9.46891L19.25 3.89711Z" stroke="#FF6F1E" stroke-opacity="0.2"/>
<path d="M23.625 19.8438C23.625 20.4133 23.1633 20.875 22.5938 20.875C22.0242 20.875 21.5625 20.4133 21.5625 19.8438C21.5625 19.2742 22.0242 18.8125 22.5938 18.8125C23.1633 18.8125 23.625 19.2742 23.625 19.8438Z" fill="#FF6F1E"/>
<path d="M22.4407 21.964L24.2687 23.1827L26.8194 20.6319C26.9241 20.5273 27.0839 20.5014 27.2162 20.5676L29.8125 21.9063V24.3125C29.8125 24.6922 29.5047 25 29.125 25H20.875C20.4953 25 20.1875 24.6922 20.1875 24.3125V23.625C20.1875 23.625 22.3043 21.8731 22.4407 21.964Z" fill="#FF6F1E"/>
<path d="M20.875 26.375C20.4953 26.375 20.1875 26.6828 20.1875 27.0625C20.1875 27.4422 20.4953 27.75 20.875 27.75H29.125C29.5047 27.75 29.8125 27.4422 29.8125 27.0625C29.8125 26.6828 29.5047 26.375 29.125 26.375H20.875Z" fill="#FF6F1E"/>
<path d="M20.875 29.125C20.4953 29.125 20.1875 29.4328 20.1875 29.8125C20.1875 30.1922 20.4953 30.5 20.875 30.5H25C25.3797 30.5 25.6875 30.1922 25.6875 29.8125C25.6875 29.4328 25.3797 29.125 25 29.125H20.875Z" fill="#FF6F1E"/>
<path d="M16.75 16.75C16.75 15.2312 17.9812 14 19.5 14H30.5C32.0188 14 33.25 15.2312 33.25 16.75V33.25C33.25 34.7688 32.0188 36 30.5 36H19.5C17.9812 36 16.75 34.7688 16.75 33.25V16.75ZM30.5 15.375H19.5C18.7406 15.375 18.125 15.9906 18.125 16.75V33.25C18.125 34.0094 18.7406 34.625 19.5 34.625H30.5C31.2594 34.625 31.875 34.0094 31.875 33.25V16.75C31.875 15.9906 31.2594 15.375 30.5 15.375Z" fill="#FF6F1E"/>
</svg>
